<?xml version="1.0" encoding="UTF-8" standalone="no"?>
<svg
   xmlns:dc="http://purl.org/dc/elements/1.1/"
   xmlns:cc="http://creativecommons.org/ns#"
   xmlns:rdf="http://www.w3.org/1999/02/22-rdf-syntax-ns#"
   xmlns:svg="http://www.w3.org/2000/svg"
   xmlns="http://www.w3.org/2000/svg"
   xmlns:sodipodi="http://sodipodi.sourceforge.net/DTD/sodipodi-0.dtd"
   xmlns:inkscape="http://www.inkscape.org/namespaces/inkscape"
   width="1500"
   height="250"
   viewBox="0 0 1500 250"
   id="svg2"
   version="1.1"
   inkscape:version="0.91 r13725"
   sodipodi:docname="2702RebelsText.svg">
  <sodipodi:namedview
     pagecolor="#ffffff"
     bordercolor="#666666"
     borderopacity="1"
     objecttolerance="10"
     gridtolerance="10"
     guidetolerance="10"
     inkscape:pageopacity="0"
     inkscape:pageshadow="2"
     inkscape:window-width="1366"
     inkscape:window-height="745"
     id="namedview31"
     showgrid="false"
     inkscape:zoom="0.47665056"
     inkscape:cx="792.97436"
     inkscape:cy="122.90203"
     inkscape:window-x="-8"
     inkscape:window-y="-8"
     inkscape:window-maximized="1"
     inkscape:current-layer="flowRoot4159" />
  <defs
     id="defs4">
    <filter
       id="filter5229"
       style="color-interpolation-filters:sRGB"
       height="1.3"
       y="-0.15000001"
       width="1.3"
       x="-0.15000001">
      <feTurbulence
         id="feTurbulence5231"
         seed="25"
         baseFrequency="0.08 0.175"
         numOctaves="5"
         type="turbulence" />
      <feColorMatrix
         id="feColorMatrix5233"
         values="1 0 0 0 0 0 1 0 0 0 0 0 1 0 0 0 0 0 2 0 "
         result="result5" />
      <feComposite
         id="feComposite5235"
         in2="result5"
         operator="in"
         in="SourceGraphic" />
      <feMorphology
         id="feMorphology5237"
         result="result3"
         radius="0.65"
         operator="dilate" />
      <feTurbulence
         id="feTurbulence5239"
         seed="25"
         type="fractalNoise"
         baseFrequency="0.05 0.09"
         numOctaves="7" />
      <feGaussianBlur
         id="feGaussianBlur5241"
         result="result7"
         stdDeviation="2" />
      <feDisplacementMap
         id="feDisplacementMap5243"
         in2="result7"
         result="result4"
         scale="5"
         yChannelSelector="G"
         xChannelSelector="R"
         in="result3" />
      <feFlood
         id="feFlood5245"
         flood-color="rgb(255,255,255)"
         flood-opacity="1" />
      <feComposite
         k4="0"
         k2="0"
         id="feComposite5247"
         in2="result4"
         operator="arithmetic"
         result="result2"
         k1="0.7"
         k3="0.7" />
      <feComposite
         k4="0"
         k3="0"
         id="feComposite5249"
         result="result6"
         k1="1"
         in2="SourceAlpha"
         operator="arithmetic"
         in="result2"
         k2="1" />
      <feBlend
         result="fbSourceGraphic"
         id="feBlend5251"
         in="result6"
         in2="result6"
         mode="multiply" />
      <feColorMatrix
         id="feColorMatrix5253"
         values="0 0 0 -1 0 0 0 0 -1 0 0 0 0 -1 0 0 0 0 1 0"
         in="fbSourceGraphic"
         result="fbSourceGraphicAlpha" />
      <feTurbulence
         result="result91"
         baseFrequency="0.08"
         type="turbulence"
         seed="0"
         numOctaves="2"
         id="feTurbulence5255" />
      <feDisplacementMap
         in="fbSourceGraphic"
         xChannelSelector="R"
         yChannelSelector="G"
         scale="10"
         result="fbSourceGraphic"
         in2="result91"
         id="feDisplacementMap5257" />
      <feGaussianBlur
         stdDeviation="0.5"
         in="fbSourceGraphic"
         result="result0"
         id="feGaussianBlur5259" />
      <feTurbulence
         result="result1"
         numOctaves="8"
         seed="488"
         baseFrequency="0.01"
         id="feTurbulence5261" />
      <feComposite
         in="result0"
         operator="in"
         result="result2"
         in2="result1"
         id="feComposite5263" />
      <feSpecularLighting
         in="result2"
         specularExponent="30"
         specularConstant="1"
         result="result4"
         surfaceScale="1.5"
         id="feSpecularLighting5265">
        <feDistantLight
           azimuth="235"
           elevation="70"
           id="feDistantLight5267" />
      </feSpecularLighting>
      <feComposite
         result="result5"
         operator="atop"
         in="result4"
         in2="result2"
         id="feComposite5269" />
      <feBlend
         result="result6"
         mode="multiply"
         in2="result5"
         id="feBlend5271" />
      <feBlend
         in="result6"
         mode="screen"
         in2="result6"
         id="feBlend5273" />
    </filter>
  </defs>
  <metadata
     id="metadata7">
    <rdf:RDF>
      <cc:Work
         rdf:about="">
        <dc:format>image/svg+xml</dc:format>
        <dc:type
           rdf:resource="http://purl.org/dc/dcmitype/StillImage" />
        <dc:title></dc:title>
      </cc:Work>
    </rdf:RDF>
  </metadata>
  <g
     transform="translate(750,-796.36216)"
     id="layer1"
     style="fill:#982424;fill-opacity:1;stroke-width:1;stroke-miterlimit:4;stroke-dasharray:none;stroke:#ffffff;stroke-opacity:1">
    <g
       transform="translate(90.364049,345.61574)"
       id="g4147"
       style="fill:#982424;fill-opacity:1;stroke-width:1;stroke-miterlimit:4;stroke-dasharray:none;stroke:#ffffff;stroke-opacity:1">
      <path
         id="path4161"
         d="m 389.50547,695.02655 c -1.4074,-1.13142 -1.7624,-1.97058 -1.7624,-4.16664 0,-1.51242 -0.3005,-3.35502 -0.6679,-4.09465 -0.3674,-0.73964 -0.4394,-1.77355 -0.1602,-2.2976 0.7073,-1.32722 13.5276,-12.22186 36.7151,-31.20015 20.4654,-16.75036 43.6158,-38.53666 44.9413,-42.29335 1.8195,-5.15645 -2.4614,-5.59713 -14.2406,-1.46599 -5.7184,2.00548 -8.5807,2.68044 -10.1938,2.40372 -1.4058,-0.24115 -2.928,0.007 -4.0785,0.66411 -2.4571,1.40403 -3.825,1.32127 -5.1989,-0.31454 -0.6298,-0.74987 -1.7431,-1.56793 -2.474,-1.81788 -1.9336,-0.66127 -8.1349,-5.35219 -10.289,-7.78296 -1.724,-1.94541 -1.8291,-2.37275 -1.4987,-6.09433 0.5532,-6.23129 2.5746,-10.17392 8.411,-16.40531 5.3644,-5.7275 12.9274,-10.96438 26.5385,-18.37603 17.5279,-9.54447 38.251,-15.44378 56.1981,-15.998 5.7618,-0.17792 5.7676,-0.17636 5.7676,1.53991 0,1.49519 -0.4986,1.88637 -3.8451,3.01622 -4.2463,1.43369 -8.4669,3.07488 -9.906,3.85182 -0.5137,0.27742 -1.1621,1.45241 -1.4407,2.61106 -0.4146,1.72354 -1.1426,2.38482 -4.0043,3.63632 -2.1995,0.9619 -4.125,2.41578 -5.1875,3.91682 -1.2621,1.78291 -3.8742,3.51347 -10.3201,6.8372 -4.7466,2.44755 -8.7746,4.45008 -8.9509,4.45008 -0.1763,0 -3.8464,1.87765 -8.1558,4.17257 -7.5482,4.01973 -11.9832,7.07077 -11.3123,7.78222 0.1762,0.18687 4.0694,0.0415 8.6514,-0.32305 4.5819,-0.36458 9.7727,-0.71041 11.535,-0.76854 5.5888,-0.18438 15.9673,1.00122 17.4404,1.99227 0.7807,0.52518 2.1297,0.95489 2.9982,0.95489 1.8825,0 3.593,1.65875 3.593,3.48418 0,0.76906 0.8182,1.76991 1.9729,2.41336 2.5074,1.39712 4.0204,5.11999 3.4803,8.56395 -0.9328,5.94907 -8.0954,15.41166 -18.1628,23.99489 -5.6292,4.79939 -10.3722,9.22448 -25.9658,24.22573 -2.8722,2.76311 -8.3943,7.50785 -12.2714,10.54384 -3.8771,3.03601 -10.3656,8.49352 -14.4189,12.12782 -7.6804,6.88644 -20.0629,16.1524 -21.5852,16.1524 -0.4844,0 -2.6431,0.95863 -4.7971,2.13026 -3.005,1.63451 -4.4097,2.03057 -6.036,1.70184 -1.3095,-0.26471 -3.0194,-0.0233 -4.4744,0.6318 -3.1158,1.40278 -4.7183,1.30908 -6.8445,-0.40026 z M 65.080652,656.5544 c -2.46722,-1.42865 -7.36964,-4.42037 -10.89425,-6.64827 -3.52463,-2.22793 -7.53181,-4.75011 -8.90486,-5.60486 -1.37305,-0.85477 -2.90506,-1.38518 -3.40442,-1.17869 -0.49938,0.20647 -1.87013,2.61994 -3.04611,5.36322 -1.90738,4.44948 -3.0842,5.87965 -4.83806,5.87965 -0.29867,0 -1.46833,-1.47598 -2.59923,-3.27996 -2.23787,-3.56976 -2.21014,-4.57393 0.29606,-10.72736 1.06047,-2.60374 1.05772,-2.62066 -0.71578,-4.41186 -0.97918,-0.98893 -4.96416,-4.02204 -8.85551,-6.74024 -3.89134,-2.7182 -9.65889,-6.83278 -12.81678,-9.14354 -3.15788,-2.31075 -7.7602603,-5.62879 -10.2274903,-7.37343 -2.46722,-1.74463 -7.7491297,-5.97659 -11.7375597,-9.40434 -3.98842,-3.42775 -7.81658,-6.23228 -8.50698,-6.23228 -1.4759,0 -1.82811,0.8752 -4.77299,11.86046 -3.42818,12.78813 -4.55888,14.91717 -11.02868,20.76652 -3.4184,3.0906 -5.89436,3.38697 -7.69451,0.92104 -0.90149,-1.23493 -1.77833,-1.63859 -3.37479,-1.55367 -1.65193,0.088 -2.32865,-0.24785 -2.89071,-1.43416 -0.40362,-0.85191 -1.21291,-2.11931 -1.79842,-2.81645 -0.58552,-0.69714 -1.06458,-1.62143 -1.06458,-2.05395 0,-0.65123 6.66057,-22.27495 7.91299,-25.68979 1.28139,-3.49377 1.91102,-5.41837 2.37201,-7.25043 0.28667,-1.13936 1.71567,-5.64499 3.17554,-10.01252 1.45987,-4.36754 3.32186,-9.96073 4.13773,-12.42932 1.35077,-4.08691 4.28907,-12.13195 8.07035,-22.09659 0.79266,-2.08881 2.26254,-5.75388 3.26641,-8.14459 1.00389,-2.39071 1.82525,-4.58537 1.82525,-4.87703 0,-0.29165 0.73625,-2.17475 1.63611,-4.18469 1.51251,-3.37836 1.8796,-6.16367 0.75825,-5.75342 -0.25951,0.095 -1.92101,0.17263 -3.69221,0.17263 -3.04953,0 -3.43961,0.21978 -7.35349,4.14311 -4.1909,4.20103 -6.44732,5.12527 -7.16482,2.9347 -0.21769,-0.66462 -0.8993,-1.82987 -1.51468,-2.58944 -0.61539,-0.75956 -1.24669,-2.62397 -1.40289,-4.1431 -0.15618,-1.51915 -0.49632,-3.27941 -0.75578,-3.91169 -1.24784,-3.04083 16.15565,-18.04277 25.73768,-22.1861 1.49797,-0.64773 3.94917,-1.7174 5.44714,-2.37706 1.49796,-0.65965 4.1110797,-2.58443 5.8069297,-4.27728 l 3.08336,-3.07791 2.15144,1.24845 c 1.99219,1.15603 2.26073,1.16595 3.6278303,0.13422 2.35901,-1.78041 22.68786,-1.61163 27.48782,0.22822 9.29314,3.56208 17.68555,9.64686 21.16641,15.34631 4.63563,7.59024 4.76554,8.00258 4.74957,15.07503 -0.0238,10.51574 -1.90971,15.36963 -10.35276,26.64469 -6.58554,8.79449 -6.86706,9.07216 -9.81788,9.68311 -1.2336,0.25542 -3.25227,1.29406 -4.48587,2.3081 -4.27485,3.51393 -11.84006,8.56081 -17.60155,11.7423 -5.00415,2.76329 -7.89369,4.17022 -14.1199803,6.87509 -0.70493,0.30622 -3.01194,1.12133 -5.12672,1.81132 -2.11477,0.68998 -4.1334097,1.53699 -4.4858697,1.88224 -0.66324,0.64966 3.0498297,4.58785 7.3696397,7.81651 1.23362,0.92201 3.54065,2.76178 5.1267203,4.0884 5.69378,4.76234 22.22681,16.22509 23.4019,16.22509 1.62002,0 3.34751,-2.55523 6.06881,-8.97675 1.52898,-3.60796 4.42685,-9.97798 6.43972,-14.15561 2.01286,-4.17764 6.19106,-12.87817 9.28488,-19.33451 3.09383,-6.45634 6.27021,-12.84294 7.05862,-14.19241 0.78842,-1.34949 2.49053,-4.6122 3.78248,-7.25046 1.29196,-2.63825 3.91906,-7.74879 5.83802,-11.35675 4.85053,-9.11978 9.89955,-19.81181 9.89955,-20.96371 0,-0.53006 -0.44648,-1.36303 -0.99219,-1.85103 -1.66078,-1.48518 -0.80024,-3.56727 2.27315,-5.49992 1.74689,-1.09852 3.13121,-2.57334 3.51278,-3.74245 0.55094,-1.68802 0.41067,-2.11771 -1.12073,-3.43349 -2.80839,-2.41293 -2.25954,-3.64973 2.04515,-4.60869 1.26079,-0.28086 4.31097,-1.13917 6.77821,-1.90734 4.09225,-1.27412 7.100628,-1.44007 34.284878,-1.89128 16.38947,-0.27204 30.80835,-0.44494 32.04195,-0.38419 1.23362,0.0607 10.64054,0.28198 20.90428,0.49167 16.04755,0.32786 18.99808,0.22965 21.06572,-0.70125 3.36303,-1.51409 17.74914,-1.50289 22.69844,0.0176 9.04889,2.78005 10.91091,3.53692 15.09888,6.13748 7.49652,4.65502 12.19782,10.662 14.81242,18.92618 0.9281,2.93345 0.9174,3.66102 -0.1364,9.27332 -1.6991,9.0489 -4.1241,13.79605 -9.5321,18.66003 -2.46723,2.21904 -6.86499,5.74344 -9.77279,7.83201 -2.90782,2.08857 -5.28693,4.25654 -5.28693,4.8177 0,0.56118 0.82638,2.31924 1.83638,3.90681 2.46352,3.87219 5.85369,10.79752 5.85369,11.95769 0,1.72878 -2.74804,9.54634 -4.33598,12.33487 -2.01104,3.53153 -9.14443,11.46883 -13.28709,14.7845 -1.76232,1.4105 -5.7996,4.23861 -8.97175,6.28471 -3.17215,2.04607 -9.14632,6.11966 -13.27595,9.05243 -4.12961,2.93276 -8.1669,5.54165 -8.97174,5.79756 -0.80485,0.25591 -3.19363,1.34205 -5.30839,2.41368 -2.12331,1.07596 -6.48555,2.42584 -9.74196,3.01458 -3.24328,0.58639 -6.41543,1.36133 -7.04922,1.72209 -2.07957,1.1837 -6.80256,2.73817 -14.2055,4.67543 l -7.28562,1.90657 -3.48418,4.70529 c -5.2026,7.02593 -8.19943,10.21152 -9.56164,10.16382 -1.25304,-0.0439 -5.38615,-5.48327 -5.38615,-7.0885 0,-0.49006 0.42341,-1.49419 0.94089,-2.23141 1.77941,-2.53498 0.80012,-5.72232 -3.2707,-10.64533 -1.50439,-1.8193 -2.15776,-2.08859 -5.06729,-2.08859 -2.32652,0 -3.60714,0.34679 -4.21974,1.14273 -2.06766,2.68648 -4.39357,3.00037 -22.233038,3.00037 -9.47608,0 -19.0018,0.19963 -21.16828,0.44363 -6.06603,0.68318 -5.53674,1.56789 4.39188,7.34105 13.08134,7.60636 15.34246,9.19279 17.3285,12.15798 1.72517,2.57572 1.92333,3.26792 1.33427,4.66099 -0.89621,2.11944 -3.04896,2.11956 -5.17009,3.1e-4 -1.9205,-1.91883 -7.32044,-4.23942 -8.31846,-3.5748 -0.48956,0.32603 -0.49357,0.85985 -0.0134,1.82593 0.84899,1.70929 0.35811,3.44857 -1.48666,5.26758 -2.47007,2.43557 -3.70664,2.37948 -8.48011,-0.38455 z m 60.783878,-45.17371 c 2.32823,-4.04182 11.31052,-20.62557 11.31052,-20.88226 0,-0.15969 0.81328,-1.78005 1.8073,-3.60074 0.99401,-1.8207 2.92052,-5.64085 4.2811,-8.48925 1.3606,-2.84838 3.54373,-7.19864 4.85139,-9.66725 4.29922,-8.11608 21.74301,-45.94682 21.74301,-47.1546 0,-1.85763 -2.92216,-1.45688 -6.79747,0.93222 -1.88588,1.16264 -3.59617,2.40557 -3.80066,2.76208 -0.20448,0.3565 -1.81589,0.64818 -3.58091,0.64818 -2.43573,0 -3.71535,0.41605 -5.30959,1.7263 -1.15526,0.94946 -2.59222,1.72629 -3.19326,1.72629 -1.65175,0 -4.87419,-1.98647 -4.87419,-3.00468 0,-0.49374 -0.70979,-1.61619 -1.57733,-2.49437 -1.31995,-1.33617 -1.46154,-1.83464 -0.8677,-3.05508 0.39029,-0.8021 1.10008,-1.70687 1.57731,-2.01058 0.47724,-0.3037 0.86772,-1.20046 0.86772,-1.99278 0,-1.31983 -0.25327,-1.40318 -3.02131,-0.99437 -1.66171,0.24544 -9.93846,0.64981 -18.39277,0.89862 -17.5337,0.51604 -16.50205,0.13473 -19.89172,7.35359 -0.93598,1.99335 -2.33456,3.92633 -3.10798,4.29558 -0.77342,0.36923 -1.32893,1.17735 -1.23447,1.79582 0.34435,2.25453 -1.04156,4.59274 -3.17599,5.35833 -1.41132,0.5062 -2.605578,1.6737 -3.564358,3.48445 -2.34463,4.42807 -2.08519,4.86607 2.883768,4.8683 2.37912,10e-4 6.77688,0.31362 9.7728,0.69456 2.99593,0.38093 9.917,0.97215 15.38014,1.31382 5.46315,0.34167 10.36557,0.81733 10.89427,1.05702 1.51128,0.68521 5.12671,6.8588 5.12671,8.75422 0,2.12711 -1.0968,3.36983 -2.97413,3.36983 -1.91579,0 -2.32759,0.90221 -1.40624,3.0811 0.61627,1.45742 0.58708,1.99065 -0.15198,2.77847 -1.4435,1.53854 -8.30004,2.3626 -20.78072,2.49752 -7.79291,0.0843 -12.54244,0.44405 -14.64023,1.10902 -1.70781,0.54137 -5.600918,0.99871 -8.651318,1.0163 -6.12652,0.0354 -9.86704,0.89229 -11.22139,2.57078 -1.54955,1.92042 -15.14977,31.27589 -14.78478,31.91225 0.19205,0.33481 8.23718,0.60877 17.87806,0.60877 12.92046,0 18.849418,0.27228 22.551748,1.03565 2.76259,0.56961 7.26754,1.03571 10.011,1.03578 l 4.98811,1.2e-4 1.29964,2.37348 c 2.1166,3.86547 8.06522,5.25741 9.77598,2.28751 z m 32.16984,-7.35902 c 0.33483,-0.34457 2.48325,-1.46669 4.77425,-2.4936 2.29101,-1.02691 7.62439,-3.72887 11.85199,-6.00436 6.81077,-3.66587 10.76338,-6.32976 23.40095,-15.77137 3.60131,-2.69054 7.68328,-7.78509 7.68328,-9.58918 0,-2.19302 -1.43448,-2.80299 -6.59187,-2.80299 -4.69588,0 -6.59644,0.39907 -18.08044,3.79645 -1.76231,0.52136 -5.0069,1.31923 -7.21019,1.77306 -3.9602,0.81571 -4.02912,0.86952 -6.02658,4.70563 -1.11132,2.13425 -4.71569,8.74353 -8.00973,14.68729 -3.29404,5.94374 -5.98917,11.14852 -5.98917,11.56617 0,0.91334 3.33644,1.01897 4.19751,0.13288 z M 6.760022,547.16201 c 7.71726,-3.99942 8.8194,-4.82465 15.05972,-11.2759 3.7032,-3.82834 7.52088,-7.17322 8.48373,-7.43306 1.9563,-0.52792 3.77291,-3.65483 3.80685,-6.55268 0.0355,-3.03924 -1.89603,-6.99509 -3.8133,-7.80948 -1.75719,-0.74639 -14.86963,-2.75704 -18.36518,-2.81609 -2.78548,-0.0471 -4.34979,2.41891 -6.94859,10.95372 -1.25577,4.12412 -4.0628603,11.51666 -6.2380203,16.42784 -2.17513,4.91118 -4.1174,10.00915 -4.31614,11.3288 l -0.36135,2.39937 2.18283,-0.45365 c 1.20054,-0.2495 5.9298003,-2.3955 10.5094503,-4.76887 z m 183.284258,-2.99607 c 1.40985,-0.57038 4.08973,-1.48847 5.95529,-2.04022 1.86555,-0.55172 4.74933,-1.77976 6.40838,-2.72895 3.3712,-1.92879 12.68581,-9.7589 16.02096,-13.4677 2.54011,-2.82467 5.88559,-8.79599 5.89426,-10.5206 0.003,-0.65923 -1.07542,-1.96385 -2.39715,-2.89915 -2.23015,-1.57812 -3.0408,-1.71056 -11.26097,-1.83965 -7.96951,-0.12518 -8.97328,-0.007 -10.00893,1.17286 -0.63312,0.72158 -3.53649,6.28369 -6.45197,12.36025 -2.91548,6.07657 -5.84324,11.88228 -6.50616,12.90159 -1.47461,2.26741 -3.14264,7.19349 -2.62475,7.75152 0.60272,0.64945 2.21261,0.426 4.97104,-0.68995 z m 45.49592,109.67104 c -1.46563,-1.15369 -4.1618,-5.6938 -4.1618,-7.00808 0,-0.77772 0.92714,-3.43998 2.06034,-5.91611 2.01583,-4.40478 2.03661,-4.54537 0.96126,-6.5069 -0.60449,-1.10266 -1.09908,-2.8055 -1.09908,-3.78408 0,-1.32796 -0.41154,-1.89053 -1.62266,-2.21805 -2.0046,-0.54213 -5.38383,-5.67388 -5.87241,-8.9179 -0.19766,-1.31246 -0.75496,-2.74004 -1.23844,-3.17241 -1.23503,-1.10442 -1.09435,-4.34642 0.24238,-5.5863 0.61681,-0.57211 2.28635,-1.72828 3.71011,-2.56927 2.45904,-1.45253 3.15717,-2.74516 13.94708,-25.82438 9.78602,-20.93192 15.52742,-32.49886 24.05572,-48.46347 6.7783,-12.68887 10.3553,-19.95254 10.3553,-21.02846 0,-0.68436 -0.4326,-1.6311 -0.9613,-2.10389 -1.9379,-1.73305 -1.1349,-3.83647 2.4032,-6.29429 3.8828,-2.69737 4.8236,-5.49076 2.452,-7.28068 -0.7318,-0.55233 -1.3306,-1.45936 -1.3306,-2.01565 0,-1.13433 1.1676,-1.72277 6.7288,-3.39129 2.1148,-0.63449 4.566,-1.41821 5.4472,-1.74163 1.208,-0.44341 33.14736,-1.50839 41.97486,-1.39963 0.705,0.008 5.7516,-0.003 11.21471,-0.027 5.4632,-0.0235 10.3656,-0.027 10.8943,-0.008 0.5287,0.0194 6.5846,0.22678 13.4576,0.46092 l 12.4964,0.4257 3.845,-2.95044 c 2.2646,-1.73776 5.0303,-3.19728 6.7288,-3.55096 1.5861,-0.33027 3.6339,-0.77045 4.5508,-0.97815 1.4472,-0.32787 1.8917,0.0355 3.372,2.7573 0.9377,1.72422 2.0621,3.38404 2.4984,3.68852 0.4364,0.30445 3.943,0.71331 7.7923,0.90854 5.0292,0.25507 7.079,0.614 7.2836,1.27533 0.1566,0.50618 1.147,1.97863 2.201,3.27211 1.0558,1.29573 1.7282,2.73849 1.4974,3.21304 -3.9755,8.17409 -5.9299,9.42156 -14.8251,9.46282 -7.1987,0.0333 -8.1116,0.54566 -9.8985,5.55408 -1.4319,4.01357 -8.3112,21.51231 -9.9083,25.20391 -0.8216,1.89894 -3.2791,7.95823 -5.4611,13.46511 -4.649,11.73316 -9.9162,23.24683 -11.5301,25.20392 -1.5654,1.89828 -3.8468,6.92147 -3.8468,8.46977 0,0.70091 -0.7433,2.34465 -1.6518,3.65274 -2.7032,3.89226 -4.1141,7.33939 -4.1419,10.11916 -0.015,1.43932 -0.8475,4.46795 -1.8515,6.73029 -1.004,2.26236 -1.6823,4.51516 -1.5074,5.00626 0.2534,0.71162 6.0886,0.89291 28.7406,0.89291 l 28.4227,0 2.911,1.89461 c 4.8339,3.14615 5.7228,6.8578 3.6661,15.308 -1.7379,7.14043 -1.0523,6.91878 -22.999,7.43572 l -18.6948,0.44034 -1.3836,-2.52682 c -1.2575,-2.29662 -1.639,-2.52683 -4.1876,-2.52683 -2.4398,0 -2.9276,0.25764 -3.7561,1.98378 -0.5236,1.09109 -1.6124,2.1744 -2.4196,2.40738 -0.8071,0.23299 -6.0427,0.42785 -11.6345,0.43304 l -10.167,0.0101 -2.0545,-2.41682 c -1.7369,-2.04323 -2.4798,-2.4168 -4.80651,-2.4168 -2.4177,0 -3.0563,-0.35655 -5.2562,-2.93471 -1.3772,-1.61408 -2.7307,-3.8669 -3.0078,-5.00625 -0.6063,-2.49326 -2.7724,-3.12671 -4.0509,-1.18465 -1.4929,2.2675 -3.4984,2.91095 -9.07329,2.91095 -4.11217,0 -5.60917,0.25762 -6.23757,1.07348 -1.948,2.52918 -3.3455,2.72051 -23.682,3.24229 -11.1025,0.28486 -24.2237,0.75096 -29.1582,1.03578 l -8.9717,0.51784 -5.13568,11.25206 c -5.39295,11.81581 -6.52791,13.45745 -8.32562,12.04236 z m 92.43956,-40.02577 c 0.6196,-1.41665 2.0527,-3.20337 3.1846,-3.97047 1.1319,-0.76711 2.0691,-1.88635 2.0827,-2.48719 0.013,-0.60084 1.2968,-3.73441 2.8517,-6.96348 1.943,-4.03535 2.6474,-6.17668 2.2527,-6.84851 -1.085,-1.8471 -0.59,-3.38429 1.58441,-4.92017 2.6739,-1.88862 5.5119,-7.83076 5.5119,-11.54057 0,-2.01095 1.6527,-6.26443 6.6349,-17.07503 3.6492,-7.91832 7.1379,-15.63988 7.7526,-17.15901 0.6148,-1.51916 2.6482,-6.18015 4.5187,-10.35778 8.6358,-19.2868 8.4898,-17.84808 1.7608,-17.34885 -2.7316,0.20266 -16.6458,0.7051 -30.92051,1.11654 -14.71599,0.42418 -26.69036,1.06014 -27.65486,1.46877 -1.1029,0.46729 -2.4144,2.16317 -3.7304,4.82371 -1.1163,2.25668 -2.73,4.59754 -3.5861,5.20193 -1.0029,0.7081 -1.5564,1.75267 -1.5564,2.93737 0,2.51689 -1.5204,4.64536 -3.6618,5.12619 -1.2169,0.27325 -2.2444,1.28025 -3.2272,3.16277 -2.2861,4.379 -2.0356,4.90512 2.3352,4.90512 2.0775,0 6.6194,0.3053 10.0933,0.67847 3.4738,0.37317 10.6417,0.96642 15.92857,1.31836 5.28689,0.35194 10.10359,0.85107 10.70379,1.10918 1.5753,0.67752 5.157,6.98304 5.157,9.07892 0,2.00507 -1.0558,2.98027 -3.2435,2.99589 -1.3864,0.01 -1.4541,0.20488 -1.0582,3.04973 0.3597,2.58466 0.2458,3.09924 -0.7618,3.44094 -3.6124,1.22504 -8.8245,1.71789 -19.44856,1.839 -8.1766,0.0932 -12.9264,0.45411 -15.3064,1.16301 -1.898,0.56532 -6.0795,1.096 -9.2922,1.17928 -7.8659,0.20391 -9.8709,0.8079 -11.3604,3.42219 -0.6717,1.17898 -3.7122,7.42606 -6.7567,13.8824 -3.0444,6.45636 -5.9256,12.35174 -6.4026,13.10088 -0.4769,0.74912 -0.8672,2.06974 -0.8672,2.93469 l 0,1.57266 17.4629,0.0117 c 12.3358,0.008 19.1562,0.31184 23.2304,1.03314 3.1722,0.5616 7.4022,1.02229 9.4,1.02373 4.50957,0.003 5.60207,0.43989 6.34107,2.53418 0.356,1.00894 1.6921,2.16493 3.43039,2.96779 1.566,0.72331 3.1661,1.957 3.5558,2.74151 1.0217,2.05703 1.7843,1.77071 3.0614,-1.14934 z M -99.93541,386.83045 c 0,-0.59209 0.28838,-1.07654 0.64077,-1.07654 0.35256,0 0.64094,0.2924 0.64094,0.64977 0,0.35737 -0.28838,0.84182 -0.64094,1.07653 -0.35239,0.23472 -0.64077,-0.0577 -0.64077,-0.64976 z"
         style="fill:#982424;fill-opacity:1;stroke:#ffffff;stroke-width:1;stroke-linejoin:bevel;stroke-miterlimit:4;stroke-dasharray:none;stroke-opacity:1"
         inkscape:connector-curvature="0" />
    </g>
  </g>
  <g
     transform="matrix(1.5561903,0,0,1.5561903,130.72172,28.973198)"
     style="font-style:normal;font-variant:normal;font-weight:normal;font-stretch:ultra-expanded;font-size:90px;line-height:125%;font-family:'Wide Latin';-inkscape-font-specification:'Wide Latin Ultra-Expanded';letter-spacing:0px;word-spacing:0px;fill:#982424;fill-opacity:1;stroke:#ffffff;stroke-width:0.64259493;stroke-linecap:butt;stroke-linejoin:miter;stroke-miterlimit:4;stroke-dasharray:none;stroke-opacity:1"
     id="flowRoot4159">
    <path
       d="m 100.49121,58.141602 0,28.87207 -95.5810538,0 Q 14.841797,71.500977 39.407227,61.745117 l 10.063476,-3.999023 q 17.709961,-7.03125 17.709961,-14.677735 0,-8.481445 -16.21582,-8.481445 -17.182617,0 -17.182617,11.777344 0,4.482422 4.746093,8.745117 -3.999023,1.054687 -7.866211,1.054687 -10.722656,0 -17.270507,-3.339843 -6.5039067,-3.383789 -6.5039067,-8.920899 0,-7.954101 13.7109377,-13.359375 13.754883,-5.405273 33.969726,-5.405273 20.126953,0 33.75,5.405273 13.666991,5.405274 13.666991,13.403321 0,4.833984 -5.361327,8.129882 -5.361328,3.295899 -21.401367,8.34961 L 62.917969,64.293945 Q 44.197266,70.226562 32.288086,75.148437 l 48.647461,0 19.555663,-17.006835 z"
       style=""
       id="path4168" />
    <path
       d="m 110.07129,27.02832 84.41894,0 0,5.141602 -1.40625,1.274414 q -24.60937,22.236328 -24.60937,43.330078 0,3.55957 1.58203,10.239258 l -34.62891,0 q 1.14258,-21.489258 35.72754,-47.548828 l -38.14453,0 -22.93945,17.666015 0,-30.102539 z"
       style=""
       id="path4170" />
    <path
       d="m 249.77344,25.006836 q 20.03906,0 35.55176,9.84375 15.55664,9.84375 15.55664,22.543945 0,12.392578 -16.08399,22.016602 -16.04004,9.580078 -36.69433,9.580078 -20.83008,0 -36.43067,-9.228516 -15.60058,-9.228515 -15.60058,-21.533203 0,-13.007812 16.30371,-23.115234 16.34765,-10.107422 37.39746,-10.107422 z M 249.1582,36.125 q -18.14941,0 -18.14941,21.928711 0,19.819336 17.70996,19.819336 17.31445,0 17.31445,-20.170899 0,-21.577148 -16.875,-21.577148 z"
       style=""
       id="path4172" />
    <path
       d="m 402.65918,58.141602 0,28.87207 -95.58106,0 q 9.93165,-15.512695 34.49708,-25.268555 l 10.06347,-3.999023 q 17.70996,-7.03125 17.70996,-14.677735 0,-8.481445 -16.21582,-8.481445 -17.18261,0 -17.18261,11.777344 0,4.482422 4.74609,8.745117 -3.99902,1.054687 -7.86621,1.054687 -10.72266,0 -17.27051,-3.339843 -6.50391,-3.383789 -6.50391,-8.920899 0,-7.954101 13.71094,-13.359375 13.75488,-5.405273 33.96973,-5.405273 20.12695,0 33.75,5.405273 13.66699,5.405274 13.66699,13.403321 0,4.833984 -5.36133,8.129882 -5.36133,3.295899 -21.40137,8.34961 l -12.30468,3.867187 q -18.72071,5.932617 -30.62989,10.854492 l 48.64747,0 19.55566,-17.006835 z"
       style=""
       id="path4174" />
  </g>
</svg>
